<?xml version="1.0"?>
<svg xmlns="http://www.w3.org/2000/svg" xmlns:xlink="http://www.w3.org/1999/xlink" width="512" height="512" viewBox="0 0 128 128"><defs><linearGradient id="a" x1="114.528" y1="133.694" x2="13.44" y2="32.606" gradientUnits="userSpaceOnUse"><stop offset="0" stop-color="#de6246"/><stop offset="1" stop-color="#f4d844"/></linearGradient></defs><path d="M89.415,96.9a1.749,1.749,0,0,1,0,2.474l-.966.968a1.75,1.75,0,1,1-2.476-2.473l.965-.967A1.75,1.75,0,0,1,89.415,96.9Zm31.835,13.925v15.418A1.751,1.751,0,0,1,119.5,128H8.5a1.751,1.751,0,0,1-1.75-1.75V110.829a24.216,24.216,0,0,1,17.789-23.3,46.438,46.438,0,0,1,8.5-1.229c2.631-.217,5.337-.664,7.974-.664a1.751,1.751,0,0,1,.959.166L64,96.542,86.03,85.8a1.757,1.757,0,0,1,.959-.166c5.456.6,11.146.435,16.473,1.893A24.216,24.216,0,0,1,121.25,110.829Zm-51.495-5.653L64,100.706l-5.755,4.47,3.554,3.261a3.239,3.239,0,0,0,4.4,0Zm-9.047-6.345L40.887,89.164c-2.324.238-4.659.383-6.987.574l16.827,16.846C51.971,105.617,58.625,100.448,60.708,98.831ZM10.25,124.5H25.167v-6.833a1.75,1.75,0,0,1,3.5,0V124.5H52.348l6.169-14.322-3.076-2.821L51.654,110.3a1.748,1.748,0,0,1-2.312-.145L29.375,90.16a27.8,27.8,0,0,0-3.913.741A20.708,20.708,0,0,0,10.25,110.829Zm61.591,0-5.259-12.208a6.754,6.754,0,0,1-5.164,0L56.159,124.5Zm45.909-13.668A20.708,20.708,0,0,0,102.539,90.9h0a27.8,27.8,0,0,0-3.913-.741l-2.887,2.891a1.75,1.75,0,0,1-2.477-2.474l.839-.839c-2.328-.191-4.663-.336-6.988-.574l-19.82,9.667,9.981,7.753,2.38-2.383a1.75,1.75,0,1,1,2.477,2.473l-3.472,3.476a1.748,1.748,0,0,1-2.312.145l-3.787-2.941-3.076,2.821L75.652,124.5H99.333v-6.833a1.75,1.75,0,0,1,3.5,0V124.5H117.75ZM33.5,26.125a1.751,1.751,0,0,0,1.75-1.75A20.9,20.9,0,0,1,56.122,3.5H71.878A20.994,20.994,0,0,1,92.744,23.876a21.452,21.452,0,0,1-7.195,16.278l-6.5,5.921a27.019,27.019,0,0,0-8.744,18.173H57.789A39.541,39.541,0,0,1,70.633,36.834l6.715-6.117a8.664,8.664,0,0,0,2.833-5.258A8.379,8.379,0,0,0,71.878,16H56.122a8.381,8.381,0,0,0-8.372,8.372,4.713,4.713,0,0,1-4.708,4.708,1.75,1.75,0,0,0,0,3.5,8.217,8.217,0,0,0,8.208-8.208A4.877,4.877,0,0,1,56.122,19.5H71.878a4.88,4.88,0,0,1,4.831,5.515A5.17,5.17,0,0,1,74.99,28.13l-6.715,6.118A43.038,43.038,0,0,0,54.25,66,1.751,1.751,0,0,0,56,67.748H72A1.751,1.751,0,0,0,73.75,66a23.5,23.5,0,0,1,7.658-17.336l6.5-5.921a24.95,24.95,0,0,0,8.337-18.947A24.515,24.515,0,0,0,71.878,0H56.122A24.4,24.4,0,0,0,31.75,24.375,1.751,1.751,0,0,0,33.5,26.125ZM73.75,80.889a6.883,6.883,0,0,1-6.875,6.875h-5.75a6.876,6.876,0,0,1,0-13.751h5.75A6.883,6.883,0,0,1,73.75,80.889Zm-3.5,0a3.379,3.379,0,0,0-3.375-3.376h-5.75a3.376,3.376,0,0,0,0,6.751h5.75A3.379,3.379,0,0,0,70.25,80.889Z" fill="url(#a)"/></svg>
